<svg width="1200" height="900" viewBox="0 0 1200 900" fill="none" xmlns="http://www.w3.org/2000/svg">
  <defs>
    <linearGradient id="bg" x1="90" y1="40" x2="1040" y2="790" gradientUnits="userSpaceOnUse">
      <stop stop-color="#E7F4FF"/>
      <stop offset="1" stop-color="#F4FAFF"/>
    </linearGradient>
    <linearGradient id="wash" x1="500" y1="300" x2="730" y2="530" gradientUnits="userSpaceOnUse">
      <stop stop-color="#8DD8FF"/>
      <stop offset="1" stop-color="#3E9BFF"/>
    </linearGradient>
    <linearGradient id="capsule" x1="790" y1="500" x2="990" y2="730" gradientUnits="userSpaceOnUse">
      <stop stop-color="#3EA5FF"/>
      <stop offset="1" stop-color="#0056D6"/>
    </linearGradient>
  </defs>
  <rect x="80" y="50" width="1040" height="800" rx="48" fill="url(#bg)"/>
  <rect x="280" y="180" width="520" height="560" rx="36" fill="white"/>
  <rect x="340" y="220" width="400" height="50" rx="16" fill="#EFF6FF"/>
  <circle cx="540" cy="475" r="185" fill="#E8F4FF"/>
  <circle cx="540" cy="475" r="145" fill="url(#wash)"/>
  <circle cx="540" cy="475" r="70" fill="#F5FBFF" fill-opacity="0.48"/>
  <circle cx="412" cy="252" r="12" fill="#2C6BD9"/>
  <circle cx="452" cy="252" r="12" fill="#67A4FF"/>
  <rect x="860" y="180" width="220" height="560" rx="36" fill="#F7FBFF"/>
  <rect x="885" y="230" width="170" height="500" rx="28" fill="white"/>
  <rect x="920" y="285" width="100" height="36" rx="12" fill="#D8ECFF"/>
  <rect x="910" y="360" width="120" height="160" rx="26" fill="url(#capsule)"/>
  <path d="M910 440H1030" stroke="white" stroke-width="10" stroke-linecap="round"/>
  <path d="M970 360V520" stroke="white" stroke-width="10" stroke-linecap="round"/>
  <circle cx="980" cy="610" r="36" fill="#2C6BD9"/>
  <path d="M962 610H998" stroke="white" stroke-width="8" stroke-linecap="round"/>
  <path d="M980 592V628" stroke="white" stroke-width="8" stroke-linecap="round"/>
</svg>
