<svg width="1000" height="800" viewBox="0 0 1000 800" fill="none" xmlns="http://www.w3.org/2000/svg">
  <defs>
    <linearGradient id="bg2" x1="120" y1="120" x2="880" y2="680" gradientUnits="userSpaceOnUse">
      <stop stop-color="#F8FBFF"/>
      <stop offset="1" stop-color="#ECF6FF"/>
    </linearGradient>
    <linearGradient id="box" x1="305" y1="220" x2="690" y2="620" gradientUnits="userSpaceOnUse">
      <stop stop-color="#1E87FF"/>
      <stop offset="1" stop-color="#004FBF"/>
    </linearGradient>
  </defs>
  <rect x="80" y="80" width="840" height="640" rx="42" fill="url(#bg2)"/>
  <ellipse cx="500" cy="640" rx="260" ry="55" fill="#D7E9FF"/>
  <rect x="300" y="210" width="400" height="420" rx="28" fill="url(#box)"/>
  <rect x="330" y="245" width="340" height="120" rx="20" fill="#F4FAFF" fill-opacity="0.95"/>
  <text x="500" y="297" text-anchor="middle" font-size="36" font-family="Arial, Helvetica, sans-serif" fill="#0057C9" font-weight="700">AQUADROP</text>
  <text x="500" y="335" text-anchor="middle" font-size="30" font-family="Arial, Helvetica, sans-serif" fill="#1D3F78" font-weight="700">EXPERT PRO</text>
  <circle cx="500" cy="460" r="92" fill="#EAF5FF" fill-opacity="0.92"/>
  <circle cx="500" cy="460" r="54" fill="#7FC8FF"/>
  <path d="M472 460H528" stroke="white" stroke-width="8" stroke-linecap="round"/>
  <path d="M500 432V488" stroke="white" stroke-width="8" stroke-linecap="round"/>
  <rect x="355" y="565" width="290" height="34" rx="10" fill="#7FC0FF" fill-opacity="0.9"/>
  <rect x="355" y="610" width="220" height="18" rx="9" fill="#A8D4FF"/>
  <rect x="712" y="260" width="95" height="95" rx="20" fill="#FEFEFF"/>
  <circle cx="760" cy="308" r="30" fill="#4FA9FF"/>
  <path d="M746 308H774" stroke="white" stroke-width="6" stroke-linecap="round"/>
  <path d="M760 294V322" stroke="white" stroke-width="6" stroke-linecap="round"/>
</svg>
